<svg width="50" height="50" viewBox="0 0 50 50" fill="none" xmlns="http://www.w3.org/2000/svg">
<circle cx="25" cy="25" r="25" transform="rotate(-90 25 25)" fill="#78246D"/>
<path fill-rule="evenodd" clip-rule="evenodd" d="M23.465 15.593V31.5614L16.6202 24.4583C16.021 23.836 15.0489 23.836 14.4497 24.4583C13.8501 25.0806 13.8501 26.0894 14.4497 26.7108L23.9146 36.5333C24.5138 37.1556 25.486 37.1556 26.0851 36.5333L35.5504 26.7108C35.8503 26.3997 36 25.9921 36 25.5845C36 25.177 35.8503 24.7693 35.5504 24.4583C34.9511 23.836 33.979 23.836 33.3799 24.4583L26.5348 31.5614V15.593C26.5348 14.7134 25.8475 14 24.9999 14C24.1522 14 23.465 14.7133 23.465 15.593Z" fill="white"/>
</svg>
